<svg id="Capa_1" enable-background="new 0 0 512 512" height="512" viewBox="0 0 512 512" width="512" xmlns="http://www.w3.org/2000/svg"><g><circle cx="256" cy="256" r="46"/><path d="m430.044 163.911c45.19 0 81.956-36.765 81.956-81.955s-36.766-81.956-81.956-81.956-81.955 36.766-81.955 81.956c0 17.517 5.542 33.755 14.94 47.089l-21.39 21.389c-19.74-16.044-44.046-26.672-70.639-29.603v-33.411c17.459-6.192 30-22.865 30-42.42 0-24.813-20.187-45-45-45s-45 20.187-45 45c0 19.555 12.541 36.228 30 42.42v33.411c-38.682 4.264-72.526 24.812-94.511 54.623l-28.211-16.288c1.439-5.153 2.225-10.576 2.225-16.181 0-33.223-27.029-60.251-60.251-60.251s-60.252 27.028-60.252 60.25 27.029 60.252 60.251 60.252c16.828 0 32.059-6.943 43.001-18.105l28.198 16.28c-7.356 16.719-11.45 35.183-11.45 54.589 0 31.775 10.957 61.037 29.286 84.214l-21.754 21.753c-13.041-8.759-28.721-13.879-45.577-13.879-45.19.001-81.955 36.766-81.955 81.956s36.765 81.956 81.956 81.956 81.956-36.766 81.956-81.956c0-17.517-5.542-33.755-14.94-47.089l21.39-21.389c23.396 19.017 53.207 30.434 85.638 30.434 32.103 0 61.638-11.188 84.927-29.86l42.396 42.396c-10.741 19.892-7.73 45.303 9.054 62.088 10.234 10.235 23.679 15.353 37.123 15.353s26.889-5.117 37.123-15.353c20.47-20.47 20.47-53.776 0-74.246-16.784-16.785-42.196-19.796-62.088-9.055l-42.396-42.396c18.673-23.289 29.861-52.824 29.861-84.927 0-31.775-10.957-61.037-29.286-84.214l21.754-21.753c13.04 8.759 28.72 13.878 45.576 13.878zm-174.044 168.089c-41.907 0-76-34.094-76-76s34.093-76 76-76c41.906 0 76 34.094 76 76s-34.094 76-76 76z"/></g></svg>